<svg width="33" height="33" viewBox="0 0 33 33" fill="none" xmlns="http://www.w3.org/2000/svg">
<path d="M26.125 17.5312H6.875C6.6015 17.5312 6.33919 17.4226 6.1458 17.2292C5.9524 17.0358 5.84375 16.7735 5.84375 16.5C5.84375 16.2265 5.9524 15.9642 6.1458 15.7708C6.33919 15.5774 6.6015 15.4688 6.875 15.4688H26.125C26.3985 15.4688 26.6608 15.5774 26.8542 15.7708C27.0476 15.9642 27.1562 16.2265 27.1562 16.5C27.1562 16.7735 27.0476 17.0358 26.8542 17.2292C26.6608 17.4226 26.3985 17.5312 26.125 17.5312Z" fill="#0F0F0F"/>
<path d="M26.125 11.3438H6.875C6.6015 11.3438 6.33919 11.2351 6.1458 11.0417C5.9524 10.8483 5.84375 10.586 5.84375 10.3125C5.84375 10.039 5.9524 9.77669 6.1458 9.5833C6.33919 9.3899 6.6015 9.28125 6.875 9.28125H26.125C26.3985 9.28125 26.6608 9.3899 26.8542 9.5833C27.0476 9.77669 27.1562 10.039 27.1562 10.3125C27.1562 10.586 27.0476 10.8483 26.8542 11.0417C26.6608 11.2351 26.3985 11.3438 26.125 11.3438Z" fill="#0F0F0F"/>
<path d="M26.125 23.7188H6.875C6.6015 23.7188 6.33919 23.6101 6.1458 23.4167C5.9524 23.2233 5.84375 22.961 5.84375 22.6875C5.84375 22.414 5.9524 22.1517 6.1458 21.9583C6.33919 21.7649 6.6015 21.6562 6.875 21.6562H26.125C26.3985 21.6562 26.6608 21.7649 26.8542 21.9583C27.0476 22.1517 27.1562 22.414 27.1562 22.6875C27.1562 22.961 27.0476 23.2233 26.8542 23.4167C26.6608 23.6101 26.3985 23.7188 26.125 23.7188Z" fill="#0F0F0F"/>
</svg>
